# xmcd
# Copyright (C) 1995-1998 Ti Kan
#
# Track frame offsets:
#       150
#       17525
#       39547
#       65122
#       80135
#       105915
#       129832
#       141990
#       157772
#       180202
#       199570
#
# Disc length: 3206 seconds
#
# Revision: 0
# Processed by: cddbd v1.5.2PL0 Copyright (c) Steve Scherf et al.
# Submitted via: CD-Import v1.0
#
DISCID=820c840b
DTITLE=Pearl Jam - Ten
DYEAR=1991
DGENRE=
TTITLE0=Once
TTITLE1=Even Flow
TTITLE2=Alive
TTITLE3=Why Go
TTITLE4=Black
TTITLE5=Jeremy
TTITLE6=Oceans
TTITLE7=Porch
TTITLE8=Garden
TTITLE9=Deep
TTITLE10=Release
EXTD=
EXTT0=
EXTT1=
EXTT2=
EXTT3=
EXTT4=
EXTT5=
EXTT6=
EXTT7=
EXTT8=
EXTT9=
EXTT10=
PLAYORDER=
